<?xml version="1.0" encoding="UTF-8" standalone="no"?>
<!-- Created with Inkscape (http://www.inkscape.org/) -->

<svg
   version="1.1"
   id="svg2"
   width="1920"
   height="1080"
   viewBox="0 0 1920 1080"
   sodipodi:docname="pxfuel.svg"
   inkscape:version="1.1.2 (0a00cf5339, 2022-02-04)"
   inkscape:export-filename="/home/teddy/Downloads/pxfuel.png"
   inkscape:export-xdpi="96"
   inkscape:export-ydpi="96"
   xmlns:inkscape="http://www.inkscape.org/namespaces/inkscape"
   xmlns:sodipodi="http://sodipodi.sourceforge.net/DTD/sodipodi-0.dtd"
   xmlns="http://www.w3.org/2000/svg"
   xmlns:svg="http://www.w3.org/2000/svg">
  <defs
     id="defs6" />
  <sodipodi:namedview
     id="namedview4"
     pagecolor="#ffffff"
     bordercolor="#666666"
     borderopacity="1.0"
     inkscape:pageshadow="2"
     inkscape:pageopacity="0.0"
     inkscape:pagecheckerboard="0"
     showgrid="false"
     inkscape:zoom="0.24912419"
     inkscape:cx="955.34681"
     inkscape:cy="427.49763"
     inkscape:window-width="1920"
     inkscape:window-height="1008"
     inkscape:window-x="0"
     inkscape:window-y="40"
     inkscape:window-maximized="1"
     inkscape:current-layer="g8"
     inkscape:snap-bbox="true"
     inkscape:bbox-paths="true"
     inkscape:bbox-nodes="true"
     inkscape:snap-bbox-edge-midpoints="true"
     inkscape:snap-bbox-midpoints="true"
     inkscape:object-paths="true"
     inkscape:snap-intersection-paths="true"
     inkscape:snap-smooth-nodes="true"
     inkscape:snap-midpoints="true"
     inkscape:snap-object-midpoints="true"
     inkscape:snap-center="true"
     inkscape:snap-global="true"
     inkscape:snap-text-baseline="true"
     inkscape:snap-page="true" />
  <g
     inkscape:groupmode="layer"
     inkscape:label="Image"
     id="g8">
    <g
       id="g3050">
      <rect
         style="fill:#2f2f2f;fill-opacity:1;fill-rule:evenodd;stroke-width:0.0702615;stroke-linejoin:bevel"
         id="rect965"
         width="1920"
         height="1080"
         x="0"
         y="0" />
      <path
         id="path4897"
         style="fill:#7de4af;fill-opacity:1;fill-rule:evenodd;stroke:none;stroke-width:0.51201;stroke-linejoin:bevel"
         d="m 0,473.23515 v 19.79967 6.47345 19.22466 h 1920 v -19.22466 -6.47345 -19.79967 z" />
      <path
         id="path4899"
         style="fill:#32d2e6;fill-opacity:1;fill-rule:evenodd;stroke:none;stroke-width:0.344988;stroke-linejoin:bevel"
         d="m 1047.8984,473.24702 v 19.78995 6.47027 19.21522 H 1920 v -19.21522 -6.47027 -19.78995 z" />
      <g
         id="g4707"
         transform="matrix(52.418458,0,0,1,0,-110.96797)">
        <rect
           style="fill:#424848;fill-opacity:1;fill-rule:evenodd;stroke-width:0.0405925;stroke-linejoin:bevel"
           id="rect4701"
           width="36.628319"
           height="6.522851"
           x="0"
           y="629.95691" />
        <rect
           style="fill:#404040;fill-opacity:1;fill-rule:evenodd;stroke-width:0.0202149;stroke-linejoin:bevel"
           id="rect4703"
           width="36.628319"
           height="2.1324039"
           x="0"
           y="636.4798" />
        <rect
           style="fill:#424848;fill-opacity:1;fill-rule:evenodd;stroke-width:0.0400027;stroke-linejoin:bevel"
           id="rect4705"
           width="36.628319"
           height="6.334692"
           x="0"
           y="638.61218" />
      </g>
      <g
         id="g4683"
         transform="matrix(52.418458,0,0,1,0,-2.3916792)">
        <rect
           style="fill:#424848;fill-opacity:1;fill-rule:evenodd;stroke-width:0.0405925;stroke-linejoin:bevel"
           id="rect4452"
           width="36.628319"
           height="6.522851"
           x="0"
           y="629.95691" />
        <rect
           style="fill:#404040;fill-opacity:1;fill-rule:evenodd;stroke-width:0.0202149;stroke-linejoin:bevel"
           id="rect4574"
           width="36.628319"
           height="2.1324039"
           x="0"
           y="636.4798" />
        <rect
           style="fill:#424848;fill-opacity:1;fill-rule:evenodd;stroke-width:0.0400027;stroke-linejoin:bevel"
           id="rect4678"
           width="36.628319"
           height="6.334692"
           x="0"
           y="638.61218" />
      </g>
      <g
         id="g4691"
         transform="matrix(52.418458,0,0,1,0,-34.392188)">
        <rect
           style="fill:#424848;fill-opacity:1;fill-rule:evenodd;stroke-width:0.0405925;stroke-linejoin:bevel"
           id="rect4685"
           width="36.628319"
           height="6.522851"
           x="0"
           y="629.95691" />
        <rect
           style="fill:#404040;fill-opacity:1;fill-rule:evenodd;stroke-width:0.0202149;stroke-linejoin:bevel"
           id="rect4687"
           width="36.628319"
           height="2.1324039"
           x="0"
           y="636.4798" />
        <rect
           style="fill:#424848;fill-opacity:1;fill-rule:evenodd;stroke-width:0.0400027;stroke-linejoin:bevel"
           id="rect4689"
           width="36.628319"
           height="6.334692"
           x="0"
           y="638.61218" />
      </g>
      <g
         id="g4699"
         transform="matrix(52.418458,0,0,1,0,-63.283806)">
        <rect
           style="fill:#424848;fill-opacity:1;fill-rule:evenodd;stroke-width:0.0405925;stroke-linejoin:bevel"
           id="rect4693"
           width="36.628319"
           height="6.522851"
           x="0"
           y="629.95691" />
        <rect
           style="fill:#404040;fill-opacity:1;fill-rule:evenodd;stroke-width:0.0202149;stroke-linejoin:bevel"
           id="rect4695"
           width="36.628319"
           height="2.1324039"
           x="0"
           y="636.4798" />
        <rect
           style="fill:#424848;fill-opacity:1;fill-rule:evenodd;stroke-width:0.0400027;stroke-linejoin:bevel"
           id="rect4697"
           width="36.628319"
           height="6.334692"
           x="0"
           y="638.61218" />
      </g>
      <path
         id="rect4811"
         style="fill:#7de4af;fill-opacity:1;fill-rule:evenodd;stroke:none;stroke-width:0.293869;stroke-linejoin:bevel"
         d="m 0.14693475,533.9795 v 6.52293 2.13266 6.3335 H 1920 v -6.3335 -2.13266 -6.52293 z" />
      <path
         id="path4859"
         style="fill:#32d2e6;fill-opacity:1;fill-rule:evenodd;stroke:none;stroke-width:0.198724;stroke-linejoin:bevel"
         d="m 1047.47,533.93304 v 6.56337 2.14588 6.37276 H 1920 v -6.37276 -2.14588 -6.56337 z" />
      <g
         id="g4907"
         transform="matrix(52.418458,0,0,1,0,-186.18479)">
        <rect
           style="fill:#424848;fill-opacity:1;fill-rule:evenodd;stroke-width:0.0405925;stroke-linejoin:bevel"
           id="rect4901"
           width="36.628319"
           height="6.522851"
           x="0"
           y="629.95691" />
        <rect
           style="fill:#404040;fill-opacity:1;fill-rule:evenodd;stroke-width:0.0202149;stroke-linejoin:bevel"
           id="rect4903"
           width="36.628319"
           height="2.1324039"
           x="0"
           y="636.4798" />
        <rect
           style="fill:#424848;fill-opacity:1;fill-rule:evenodd;stroke-width:0.0400027;stroke-linejoin:bevel"
           id="rect4905"
           width="36.628319"
           height="6.334692"
           x="0"
           y="638.61218" />
      </g>
      <circle
         style="fill:#ffffff;fill-opacity:1;fill-rule:evenodd;stroke-width:0.0376772;stroke-linejoin:bevel"
         id="path1041"
         cx="964.50708"
         cy="550.5282"
         r="127.5" />
      <rect
         style="fill:#2f2e2f;fill-opacity:1;fill-rule:evenodd;stroke-width:0.042939;stroke-linejoin:bevel"
         id="rect3089"
         width="44.118706"
         height="7.2372541"
         x="1068.662"
         y="497.28369" />
      <path
         id="_x3C_Path_x3E_"
         class="st2"
         d="m 881.54402,473.49116 v 106.66666 c 0.11852,26.1926 21.21482,47.28889 47.40741,47.40741 h 71.11107 c 26.1926,-0.11852 47.2889,-21.21481 47.4075,-47.40741 v -59.25926 c -0.1186,-19.55555 -16,-35.43703 -35.5556,-35.55555 -8.7704,0 -17.18519,3.31852 -23.70371,9.36296 -6.51852,-5.92592 -14.93333,-9.24444 -23.7037,-9.36296 -19.55556,0.11852 -35.43704,16 -35.55556,35.55555 v 59.25926 h 23.70371 v -59.25926 c 0,-6.51851 5.33333,-11.85185 11.85185,-11.85185 6.51852,0 11.85185,5.33334 11.85185,11.85185 v 59.25926 h 23.70366 v -59.25926 c 0,-6.51851 5.3334,-11.85185 11.8519,-11.85185 6.5185,0 11.8518,5.33334 11.8518,11.85185 v 59.25926 c 0.1186,13.03704 -10.4296,23.58519 -23.3481,23.70371 -0.1185,0 -0.237,0 -0.3556,0 h -71.11107 c -13.03703,0.11852 -23.58518,-10.42963 -23.7037,-23.34815 0,-0.11852 0,-0.23704 0,-0.35556 V 473.49116 Z"
         style="fill:#000000;fill-opacity:1;stroke-width:1.18519" />
      <rect
         style="fill:#ffffff;fill-opacity:1;fill-rule:evenodd;stroke-width:0.0550415;stroke-linejoin:bevel"
         id="rect1805"
         width="42.547283"
         height="8.0852146"
         x="979.81836"
         y="693.62323" />
      <rect
         style="fill:#ffffff;fill-opacity:1;fill-rule:evenodd;stroke-width:0.039;stroke-linejoin:bevel"
         id="rect2061"
         width="14.546649"
         height="7.4507227"
         x="957.95001"
         y="685.11176" />
      <rect
         style="fill:#6eeda7;fill-opacity:1;fill-rule:evenodd;stroke-width:0.039;stroke-linejoin:bevel"
         id="rect2165"
         width="16.558006"
         height="11.540429"
         x="1020.5753"
         y="675.74225" />
      <rect
         style="fill:#6eeda7;fill-opacity:1;fill-rule:evenodd;stroke-width:0.039;stroke-linejoin:bevel"
         id="rect2291"
         width="36.628319"
         height="7.0246086"
         x="905.92365"
         y="677.87469" />
      <rect
         style="fill:#54acb7;fill-opacity:1;fill-rule:evenodd;stroke-width:0.0400687;stroke-linejoin:bevel"
         id="rect2395"
         width="26.964521"
         height="6.3863339"
         x="822.41785"
         y="414.4021" />
      <path
         id="rect2539"
         style="fill:#ffffff;fill-opacity:1;fill-rule:evenodd;stroke-width:0.039;stroke-linejoin:bevel"
         d="m 887.3457,414.75781 v 4.25586 h -17.03125 v 5.32227 h 32.28711 v -4.25782 h 17.03125 v -5.32031 z" />
      <path
         id="rect2663"
         style="fill:#74eaa7;fill-opacity:1;fill-rule:evenodd;stroke-width:0.039;stroke-linejoin:bevel"
         d="m 938.28711,389.61523 v 5.76954 h 28.09766 v 5.26953 h 38.63673 v -6.52344 h -21.32619 v -4.51563 z" />
      <rect
         style="fill:#2f2e2f;fill-opacity:1;fill-rule:evenodd;stroke-width:0.0650397;stroke-linejoin:bevel"
         id="rect2789"
         width="86.298248"
         height="10.606519"
         x="981.3457"
         y="433.16562" />
      <rect
         style="fill:#6eeda7;fill-opacity:1;fill-rule:evenodd;stroke-width:0.039;stroke-linejoin:bevel"
         id="rect2927"
         width="16.808886"
         height="5.2684565"
         x="773.71051"
         y="591.07068" />
      <rect
         style="fill:#ffffff;fill-opacity:1;fill-rule:evenodd;stroke-width:0.0372841;stroke-linejoin:bevel"
         id="rect3027"
         width="15.986216"
         height="6.1963282"
         x="799.59387"
         y="581.66357" />
      <path
         id="rect3029"
         style="fill:#ffffff;fill-opacity:1;fill-rule:evenodd;stroke-width:0.0420641;stroke-linejoin:bevel"
         d="m 1068.0078,510.92188 v 3.90039 h 11.0723 v 3.90039 h 32.3261 v -3.90039 h -11.0722 v -3.90039 z" />
      <rect
         style="fill:#ffffff;fill-opacity:1;fill-rule:evenodd;stroke-width:0.0342829;stroke-linejoin:bevel"
         id="rect3211"
         width="28.738503"
         height="6.0315375"
         x="815.67676"
         y="625.15112" />
      <path
         id="rect3349"
         style="fill:#ffffff;fill-opacity:1;fill-rule:evenodd;stroke-width:0.039;stroke-linejoin:bevel"
         d="m 875.2832,656.01758 v 5.67773 h 20.93164 v 4.9668 h 16.32032 v -4.9668 h 2.1289 v -5.67773 z" />
      <path
         id="rect3455"
         style="fill:#2f2e2f;fill-opacity:1;fill-rule:evenodd;stroke-width:0.0396829;stroke-linejoin:bevel"
         d="m 817.92578,470.30859 v 5.28125 H 793.5918 v 6.14649 h 24.33398 47.16602 v -11.42774 z" />
      <path
         id="rect3715"
         style="fill:#2f2e2f;fill-opacity:1;fill-rule:evenodd;stroke-width:0.039;stroke-linejoin:bevel"
         d="m 1086.4512,469.75 v 3.48438 2.38476 2.38281 h 24.0859 v 2.51758 0.74414 0.74414 h 33.8672 v -0.74414 -0.74414 -2.51758 h -17.0586 v -2.38281 -2.38476 -3.48438 z" />
      <path
         id="rect3839"
         style="fill:#ffffff;fill-opacity:1;fill-rule:evenodd;stroke-width:0.0414429;stroke-linejoin:bevel"
         d="m 842.0293,481.73633 v 4.18164 H 816.375 v 3.90234 h 41.26562 v -3.11719 h 7.45118 v -4.96679 z" />
      <path
         id="rect3979"
         style="fill:#6eeda7;fill-opacity:1;fill-rule:evenodd;stroke-width:0.039;stroke-linejoin:bevel"
         d="m 1079.291,621.60352 v 9.75586 h 26.7871 v -5.32032 h 22.7071 v -4.43554 h -22.7071 z" />
      <rect
         style="fill:#ffffff;fill-opacity:1;fill-rule:evenodd;stroke-width:0.039;stroke-linejoin:bevel"
         id="rect4104"
         width="15.788436"
         height="6.2089357"
         x="1104.8357"
         y="636.50458" />
      <rect
         style="fill:#54acb7;fill-opacity:1;fill-rule:evenodd;stroke-width:0.039;stroke-linejoin:bevel"
         id="rect4128"
         width="16.143232"
         height="5.4993429"
         x="1129.8489"
         y="645.90668" />
      <path
         id="rect7399"
         style="fill:#2f2e2f;fill-rule:evenodd;stroke-width:0.0480702;stroke-linejoin:bevel"
         d="m 948.36389,424.0543 -61.90527,0.2821 v 7.72314 h 61.90527 z"
         sodipodi:nodetypes="ccccc" />
      <rect
         style="fill:#2f2e2f;fill-opacity:1;fill-rule:evenodd;stroke:none;stroke-width:0.039;stroke-linejoin:bevel;stroke-opacity:1"
         id="rect7423"
         width="44.704338"
         height="8.4670773"
         x="1065.7941"
         y="581.66309" />
      <rect
         style="fill:#2f2e2f;fill-opacity:1;fill-rule:evenodd;stroke:none;stroke-width:0.039;stroke-linejoin:bevel;stroke-opacity:1"
         id="rect7425"
         width="48.961895"
         height="13.463176"
         x="865.703"
         y="642.55518" />
      <rect
         style="fill:#2f2e2f;fill-opacity:1;fill-rule:evenodd;stroke:none;stroke-width:0.0354838;stroke-linejoin:bevel;stroke-opacity:1"
         id="rect7507"
         width="31.821009"
         height="9.8469114"
         x="1047.47"
         y="621.60352" />
      <path
         id="rect7691"
         style="fill:#2f2e2f;fill-opacity:1;fill-rule:evenodd;stroke-width:0.0576051;stroke-linejoin:bevel"
         d="m 815.58008,581.66406 v 6.19532 h 38.16015 v -6.19532 z m 6.86914,6.19727 v 6.19531 h 44.43555 v -6.19531 z" />
      <rect
         style="fill:#2f2e2f;fill-opacity:1;fill-rule:evenodd;stroke-width:0.0408818;stroke-linejoin:bevel"
         id="rect7979"
         width="44.775028"
         height="7.7231445"
         x="971.28448"
         y="415.30505" />
      <path
         id="rect2329"
         style="fill:#ffffff;fill-opacity:1;fill-rule:evenodd;stroke-width:0.058646;stroke-linejoin:bevel"
         d="M 964.50781 423.02734 L 961.07227 427.31641 L 981.3457 427.31641 L 981.3457 433.16602 L 1067.6445 433.16602 L 1067.6445 427.31641 L 1057.3828 427.31641 L 1052.9863 427.31641 L 1034.2148 427.31641 L 1034.2148 423.0293 L 964.50781 423.02734 z " />
      <rect
         style="fill:#ffffff;fill-opacity:1;fill-rule:evenodd;stroke-width:0.0463656;stroke-linejoin:bevel"
         id="rect2809"
         width="32.981827"
         height="4.437007"
         x="948.36389"
         y="423.02734" />
    </g>
  </g>
  <style
     type="text/css"
     id="style1241">
	.st0{fill:#FFFFFF;}
	.st1{fill:#69B53F;}
	.st2{fill:#F8F8F8;}
</style>
</svg>
